<?xml version="1.0" encoding="utf-8"?>
<!-- Generator: Adobe Illustrator 26.0.3, SVG Export Plug-In . SVG Version: 6.00 Build 0)  -->
<svg version="1.1" id="Camada_1" xmlns="http://www.w3.org/2000/svg" xmlns:xlink="http://www.w3.org/1999/xlink" x="0px" y="0px"
	 viewBox="0 0 1482 410" style="enable-background:new 0 0 1482 410;" xml:space="preserve">
<style type="text/css">
	.st0{fill-rule:evenodd;clip-rule:evenodd;fill:#9412DC;}
	.st1{fill-rule:evenodd;clip-rule:evenodd;fill:#545669;}
</style>
<desc>Created with Sketch.</desc>
<g>
	<g id="simbolo_00000135674877713892267510000013564410617727799736_">
		<path id="Fill-2_00000164481450504461990690000005097984245321358251_" class="st0" d="M423.9,209.2c-0.2-26.2-22.2-47.3-48.9-47
			c-26.2,0.3-47.5,21.5-47.4,47.4c0.1,26.3,21.9,47.8,48.4,47.7C402.2,257.2,424,235.4,423.9,209.2 M201.2,162.2
			c-26.4-0.2-48.5,21.1-48.6,47c-0.1,25.7,22.2,47.6,48.3,47.6c25.8-0.1,47.6-21.3,48.1-46.7C249.4,184.3,227.6,162.3,201.2,162.2
			 M274.7,171.2c9.4,18.8,12.3,38.4,7,59.1c-9.8,38.1-45.2,62.4-87.6,60.1c-36.3-2-68.9-32.4-73.1-69.6c-3.6-32-0.7-64.3-1.5-96.5
			c-0.1-4,5.3-5.2,5.3-5.2H154c0,0,5.8,1.5,5.5,5.7c-0.3,4.7-0.1,9.5-0.1,15.3c11.1-4.9,21-9,32-10.4c17.1-2.1,33.3,0.6,48.5,8.5
			c4.4,2.3,7.4,2,11.5-0.1c25-12.3,50.2-12.3,75.2,0.1c4.8,2.3,8,1.8,12.3-0.3c56.5-27.7,121.4,13.6,119.1,75.6
			c-1.2,31.5-21.7,60.7-52,71.5c-33.6,12-64.4,6.3-89.5-19.5c-23.9-24.5-28.5-53.9-16.7-85.8c3.7-10.1,3.7-10.6-7.2-11.3
			C286.8,168,280.8,167.9,274.7,171.2"/>
		<path id="Fill-3_00000027594159963742713030000002480970256104770995_" class="st0" d="M177,184.9c-8.8,8.7-15.3,23.2-6.1,36.3
			c4.8-26.4,21.9-37.7,48-38.7C209.4,172.2,188.7,173.3,177,184.9"/>
		<path id="Fill-4_00000092431512133297579860000008994875406266801833_" class="st0" d="M352.5,184.9c-8.8,8.7-15.3,23.2-6.1,36.3
			c4.8-26.4,21.9-37.7,48-38.7C384.8,172.2,364.2,173.3,352.5,184.9"/>
	</g>
	<g>
		<path class="st1" d="M691.8,188.3c-2-5.2-4.8-9.9-8.6-13.8c-3.8-4-8.4-7-13.8-9.5c-5.4-2.3-11.5-3.5-18.3-3.5
			c-6.9,0-13,1.1-18.5,3.5c-5.5,2.3-10.1,5.5-14,9.5c-3.8,4-6.8,8.7-8.8,13.9s-3,10.9-3,16.8c0,5.7,1,11.2,3.1,16.4s5,9.8,8.9,13.8
			c3.8,4,8.5,7,13.9,9.4c5.5,2.3,11.5,3.4,18.3,3.4c9.4,0,17.5-2,24.1-6.1c6.7-4.1,11.7-9.4,14.7-15.7l-18.4-5.1
			c-1.4,3.4-4,6.1-7.8,8.2c-3.8,2.1-7.8,3.1-12.1,3.1c-2.7,0-5.4-0.5-8-1.4c-2.5-0.9-4.8-2.3-6.9-4.1s-3.7-4-5-6.6s-2-5.5-2.3-8.8
			H694c0.2-0.8,0.3-2,0.4-3.2s0.1-2.6,0.1-4C694.8,199,693.8,193.6,691.8,188.3z M672.9,198h-43.4c0.2-3.1,1-5.9,2.2-8.5
			s2.8-4.8,4.7-6.6c2-1.8,4.1-3.3,6.7-4.2c2.4-1,5.2-1.6,8-1.6c5.9,0,10.8,1.9,14.9,5.7c4,3.8,6.3,8.8,6.9,15.1L672.9,198L672.9,198
			z"/>
		<path class="st1" d="M787.7,188.3c-2-5.2-4.8-9.9-8.6-13.8c-3.8-4-8.4-7-13.8-9.5c-5.4-2.3-11.5-3.5-18.3-3.5
			c-6.9,0-13,1.1-18.5,3.5c-5.5,2.3-10.1,5.5-14,9.5c-3.8,4-6.8,8.7-8.8,13.9s-3,10.9-3,16.8c0,5.7,1,11.2,3.1,16.4s5,9.8,8.9,13.8
			c3.8,4,8.5,7,13.9,9.4c5.5,2.3,11.5,3.4,18.3,3.4c9.4,0,17.5-2,24.1-6.1c6.7-4.1,11.7-9.4,14.7-15.7l-18.4-5.1
			c-1.4,3.4-4,6.1-7.8,8.2c-3.8,2.1-7.8,3.1-12.1,3.1c-2.7,0-5.4-0.5-8-1.4c-2.5-0.9-4.8-2.3-6.9-4.1c-2-1.8-3.7-4-5-6.6
			s-2-5.5-2.3-8.8h64.7c0.2-0.8,0.3-2,0.4-3.2c0.1-1.2,0.1-2.6,0.1-4C790.6,199,789.7,193.6,787.7,188.3z M768.7,198h-43.4
			c0.2-3.1,1-5.9,2.2-8.5s2.8-4.8,4.7-6.6c2-1.8,4.1-3.3,6.7-4.2c2.4-1,5.2-1.6,8-1.6c5.9,0,10.8,1.9,14.9,5.7
			c4,3.8,6.3,8.8,6.9,15.1L768.7,198L768.7,198z"/>
		<polygon class="st1" points="861,246.8 836.8,210.5 825.3,221.8 825.3,246.7 803.9,246.7 803.9,129 825.3,129 825.3,200.9 
			858.8,163.3 881.7,163.3 850.3,198.7 883.9,246.8 		"/>
		<path class="st1" d="M964.9,246.8h-10.8v-46.5c0-9.5-1.6-16.6-4.9-21.3c-3.2-4.7-8-7-14.4-7c-3.1,0-6.1,0.7-9.1,1.8
			c-3,1.2-5.9,2.9-8.5,5c-2.7,2.1-5,4.6-6.9,7.5c-2,2.9-3.4,6-4.4,9.5v51H895V129.1h10.8v53.3c3.4-6.3,8-11.2,13.9-14.9
			s12.1-5.5,18.9-5.5c4.8,0,8.9,0.9,12.2,2.7s6.1,4.2,8.2,7.3c2.1,3.1,3.6,6.9,4.6,11.4c1,4.4,1.4,9.3,1.4,14.6L964.9,246.8
			L964.9,246.8L964.9,246.8z"/>
		<path class="st1" d="M1013.1,248.4c-8.7,0-15.3-3-19.8-9s-6.7-14.9-6.7-26.9v-48.9h10.8v47c0,18.9,6.5,28.3,19.4,28.3
			c3.2,0,6.3-0.6,9.5-1.6c3.1-1,5.9-2.6,8.5-4.6s5-4.4,7-7.2c2.1-2.8,3.8-5.9,5-9.5v-52.5h10.8v69.2c0,3,1.3,4.5,4,4.5v9.6
			c-2.1,0.3-3.7,0.5-4.5,0.5c-2.4,0-4.6-0.8-6.3-2.2c-1.8-1.4-2.7-3.3-2.7-5.6V228c-3.7,6.5-8.7,11.5-14.9,15.1
			C1027.2,246.5,1020.5,248.4,1013.1,248.4L1013.1,248.4z"/>
		<path class="st1" d="M1152.3,246.8h-10.8v-46.5c0-9.9-1.4-17.1-4.3-21.6s-7.3-6.7-13.4-6.7c-3.2,0-6.3,0.6-9.6,1.8
			c-3.2,1.2-6.1,2.8-8.9,5c-2.8,2.1-5.2,4.7-7.2,7.6c-2.1,2.9-3.7,6.1-4.7,9.5v51h-10.8v-83.3h9.9v18.9c1.7-3,3.8-5.7,6.3-8.2
			s5.3-4.7,8.4-6.5s6.3-3.2,9.9-4.1c3.5-1,7-1.4,10.8-1.4c4.7,0,8.6,0.8,11.7,2.6c3.1,1.7,5.7,4.1,7.6,7.2c2,3.1,3.3,6.9,4.1,11.4
			s1.2,9.5,1.2,14.9L1152.3,246.8L1152.3,246.8L1152.3,246.8z"/>
		<path class="st1" d="M1214.5,242.8c-0.7,0.3-1.6,0.8-2.8,1.2c-1.2,0.6-2.7,1-4.2,1.6c-1.6,0.6-3.4,1-5.5,1.4
			c-2,0.5-4.1,0.7-6.3,0.7c-2.3,0-4.6-0.3-6.7-1s-4-1.6-5.6-2.9s-2.9-3-3.8-5c-1-2-1.4-4.3-1.4-7v-59.6h-11.5v-8.6h11.5v-28.2h10.8
			v28.1h19.2v8.6H1189v56.6c0.2,3.1,1.2,5.4,3.2,6.8c2,1.4,4.2,2.2,6.9,2.2c3.1,0,5.8-0.5,8.2-1.6c2.3-1,3.8-1.8,4.5-2.2
			L1214.5,242.8z"/>
		<path class="st1" d="M1301.8,188.4c-2-5.1-4.8-9.7-8.5-13.6c-3.7-4-8-7-13-9.4c-5.1-2.3-10.6-3.4-16.7-3.4s-11.7,1.1-16.7,3.4
			c-5.1,2.3-9.5,5.4-13.2,9.3c-3.8,3.8-6.7,8.4-8.7,13.6c-2.1,5.2-3.1,10.7-3.1,16.6c0,5.9,1,11.5,3.1,16.8c2.1,5.2,5,9.9,8.7,13.8
			c3.8,4,8.2,7.1,13.3,9.5c5.1,2.3,10.7,3.4,16.8,3.4c3.9,0,7.8-0.5,11.5-1.4c3.7-1,7.1-2.4,10.2-4.3c3.1-1.9,5.8-4,8.2-6.6
			c2.3-2.5,4.2-5.3,5.5-8.4l-9.5-2.6c-0.9,2.2-2.3,4.2-4,6.1c-1.8,1.8-3.8,3.4-6,4.7c-2.2,1.2-4.7,2.2-7.3,3
			c-2.7,0.8-5.4,1.1-8.2,1.1c-4,0-7.8-0.8-11.4-2.3c-3.6-1.6-6.7-3.7-9.5-6.5s-5-6.1-6.7-9.9c-1.8-3.8-2.8-7.9-3.1-12.4h71.1
			c0.1-0.3,0.1-0.9,0.2-1.8c0.1-0.9,0.1-1.8,0.1-2.6C1304.8,199,1303.8,193.5,1301.8,188.4z M1233,200.8c0.3-4.4,1.2-8.5,2.9-12.1
			c1.7-3.7,3.8-6.9,6.6-9.6c2.7-2.7,5.9-4.8,9.5-6.2c3.7-1.4,7.5-2.2,11.5-2.2s7.9,0.8,11.5,2.2c3.7,1.4,6.8,3.6,9.5,6.2
			c2.7,2.7,5,5.8,6.7,9.5c1.8,3.7,2.8,7.8,3.1,12.2L1233,200.8L1233,200.8z"/>
		<path class="st1" d="M1362.6,173.2c-7.3,0.2-13.8,2.2-19.2,6.1c-5.5,3.8-9.3,9.1-11.5,15.8v51.7h-10.8v-83.2h10.2v20
			c2.9-5.9,6.7-10.7,11.4-14.6c4.7-3.9,9.7-5.8,15.1-5.8h2.7c0.8,0,1.6,0.1,2.1,0.1L1362.6,173.2L1362.6,173.2z"/>
		<path class="st1" d="M574.2,163.1v14.7c-3.1-4.9-7-8.8-11.9-11.7s-10.7-4.4-17.3-4.4c-5.7,0-11,1.1-15.7,3.3
			c-4.8,2.2-8.8,5.4-12.2,9.3c-3.3,4-6.1,8.6-8,13.8s-2.9,10.8-2.9,16.9c0,5.7,0.9,11.2,2.7,16.3c1.8,5.1,4.4,9.6,7.7,13.5
			c3.3,3.8,7.2,6.9,11.9,9.1c4.6,2.2,9.7,3.3,15.3,3.3c5.7,0,11.1-1.3,16.1-3.9c5-2.7,8.9-6.3,11.7-11.1v8.9c0,4-0.7,7.6-2,10.6
			s-3.1,5.5-5.5,7.3c-2.2,2-5,3.3-8,4.2c-3,0.9-6.2,1.3-9.5,1.3c-5.5,0-10.8-1.1-15.6-3.3c-4.9-2.2-8.9-5.4-12.1-9.3l-11.7,11.4
			c4.5,5.5,9.9,9.9,16.1,12.9c6.3,3,14,4.6,23.3,4.6c6.7,0,12.9-0.9,18.5-2.7c5.6-1.8,10.6-4.4,14.7-7.8c4.1-3.4,7.3-7.6,9.7-12.5
			c2.1-4.4,3.2-9.5,3.4-14.9h0.1v-79.7h-18.8V163.1z M571.5,216.2c-0.8,2-1.8,3.8-3.2,5.5c-1.3,1.7-2.9,3.2-4.7,4.5
			c-1.8,1.2-3.7,2.2-5.8,3s-4.3,1.1-6.7,1.1c-3.3,0-6.3-0.7-9.2-2c-2.8-1.2-5.2-3-7.3-5.2s-3.7-4.8-4.9-7.8s-1.8-6.1-1.8-9.6
			c0-3.3,0.5-6.5,1.6-9.6c1-3.1,2.5-5.9,4.4-8.2c1.8-2.3,4.2-4.2,6.9-5.7c2.7-1.4,5.7-2.2,9-2.2c4.5,0,8.7,1.4,12.8,4.5
			c4,3,7,6.9,8.9,11.8V216.2z"/>
	</g>
</g>
</svg>
